<svg xmlns="http://www.w3.org/2000/svg" viewBox="0 0 500 500"><title>20. Success</title><g id="Layer_1" data-name="Layer 1"><rect x="163.67" y="338.88" width="78.84" height="112.62" fill="#3fe2fd"/><path d="M285,265.18c13.08-.76,26.12,3.73,39.14,2.37s26.91-12.76,23.31-25.35a47.14,47.14,0,0,1-38.65-13.48c-3.55,7.1-12.91,9.18-20.77,8-39.94-6-70.84,2-33.73,40.69C263.26,270.92,273.69,265.83,285,265.18Z" fill="#3fe2fd"/></g><g id="Layer_3" data-name="Layer 3"><path d="M358.88,330.86H339.13L352.5,301.2A130.19,130.19,0,0,0,364,247.5V210.35c0-.06,0-.13,0-.19V167.84a30.48,30.48,0,0,0-47-25.64v-5a30.48,30.48,0,0,0-53.63-19.85,30.75,30.75,0,0,0-51.91,8.93,30.48,30.48,0,0,0-48.65,24.49v32.66a30.54,30.54,0,0,0-28.73,30.43v41.68a30.58,30.58,0,0,0,6.66,19l44.93,56.28H161.23a7,7,0,0,0-7,7V449.25a7,7,0,0,0,14,0V344.86H351.88V449.25a7,7,0,0,0,14,0V337.86A7,7,0,0,0,358.88,330.86Zm-155.25,0-51.91-65a16.52,16.52,0,0,1-3.6-10.29V213.83a16.5,16.5,0,0,1,16.5-16.43h77.75c9.06,0,16.69,7.12,17,15.89,0,.2,0,.4,0,.6a16.49,16.49,0,0,1-16.48,16.48H188.1a7,7,0,0,0-.38,14l3.92.21a67.84,67.84,0,0,1,55.2,33.77,7,7,0,0,0,12.1-7,82,82,0,0,0-25.2-26.93h9.16a30.33,30.33,0,0,0,20.58-8,30.43,30.43,0,0,0,23.06,10.57h0a30.37,30.37,0,0,0,21.27-8.68,30.53,30.53,0,0,0,25.69,14.11h0A30.33,30.33,0,0,0,350,247.46v0a116.11,116.11,0,0,1-10.31,47.95l-16,35.41ZM193.35,134.29a16.52,16.52,0,0,1,16.27,13.86V183.4H176.85V150.79A16.52,16.52,0,0,1,193.35,134.29Zm46.77-13.56c9.09,0,16.49,7.14,16.49,15.93v50.21a31,31,0,0,0-14.24-3.47H223.62V136.66C223.62,127.87,231,120.73,240.12,120.73Zm46.42,0a16.52,16.52,0,0,1,16.5,16.5v79.2a16.51,16.51,0,0,1-16.49,16.49h0a16.52,16.52,0,0,1-14.79-9.22,30.29,30.29,0,0,0,1.63-9.8c0-.37,0-.75,0-1.11a29.44,29.44,0,0,0-2.75-11.41V136.66c0-1-.06-2.06-.16-3.06A16.51,16.51,0,0,1,286.54,120.72ZM350,167.84v54a16.53,16.53,0,0,1-16.5,16.5h0A16.52,16.52,0,0,1,317,221.84v-5c0-.13,0-.25,0-.38V167.64a16.5,16.5,0,0,1,33,.2Z" fill="#251ac7"/><path d="M43.79,252.41a7,7,0,0,0-12.52,6.26L96.59,389.31a7,7,0,0,0,6.27,3.87,6.84,6.84,0,0,0,3.12-.74,7,7,0,0,0,3.13-9.39Z" fill="#251ac7"/><path d="M75.58,171.88a7,7,0,1,0-13,5.14l38.29,96.86a7,7,0,1,0,13-5.15Z" fill="#251ac7"/><path d="M473.14,249.28a7,7,0,0,0-9.39,3.13L398.42,383.05a7,7,0,0,0,3.13,9.39,6.91,6.91,0,0,0,3.13.74,7,7,0,0,0,6.27-3.87l65.32-130.64A7,7,0,0,0,473.14,249.28Z" fill="#251ac7"/><path d="M406.69,273.88,445,177a7,7,0,1,0-13-5.14l-38.29,96.85a7,7,0,1,0,13,5.15Z" fill="#251ac7"/><path d="M137.87,131.21a9.84,9.84,0,0,0,8-11.36l-2.39-14,10.23-10a9.86,9.86,0,0,0-5.52-16.71l-14-2-6.26-12.69a9.83,9.83,0,0,0-17.69,0L103.9,77.17l-14.08,2A9.9,9.9,0,0,0,84.31,82a9.77,9.77,0,0,0-2.86,7,9.88,9.88,0,0,0,3,7l10.16,9.89-2.39,14a9.89,9.89,0,0,0,1,6.32,9.87,9.87,0,0,0,8.71,5.21,9.61,9.61,0,0,0,4.56-1.14L119,123.64l12.51,6.55A9.81,9.81,0,0,0,137.87,131.21Zm-8.54-25.13,1.34,7.85-7.06-3.7a9.86,9.86,0,0,0-9.15,0l-7.06,3.7,1.34-7.83a9.84,9.84,0,0,0-2.83-8.73l-5.67-5.52,7.8-1.13a9.81,9.81,0,0,0,7.42-5.36l3.6-7.21,3.53,7.16a9.83,9.83,0,0,0,7.41,5.4l7.83,1.14-5.67,5.52A9.8,9.8,0,0,0,129.33,106.08Z" fill="#251ac7"/><path d="M401.23,93.75A10.27,10.27,0,0,0,403,86.08l-2.87-16.76,12.18-11.86.08-.07a10.31,10.31,0,0,0-5.78-17.47l-16.8-2.44-7.51-15.22a10.29,10.29,0,0,0-18.51,0l-7.6,15.24-16.88,2.45a10.29,10.29,0,0,0-5.66,17.53L345.8,69.32l-2.86,16.74A10.3,10.3,0,0,0,353.1,98.13a10.15,10.15,0,0,0,4.78-1.2L372.94,89l15,7.87A10.41,10.41,0,0,0,394.58,98,10.23,10.23,0,0,0,401.23,93.75ZM388.92,60.66a10.26,10.26,0,0,0-3,9.1l1.93,11.31-10.16-5.33a10.38,10.38,0,0,0-4.79-1.18,10.24,10.24,0,0,0-4.78,1.18L358,81.07l1.94-11.29a10.27,10.27,0,0,0-3-9.12l-8.18-8,11.26-1.63a10.21,10.21,0,0,0,7.76-5.61L373,35.09l5.09,10.31a10.24,10.24,0,0,0,7.74,5.65l11.29,1.64Z" fill="#251ac7"/></g></svg>